<?xml version="1.0" encoding="UTF-8" standalone="no"?>
<svg
   xmlns:dc="http://purl.org/dc/elements/1.1/"
   xmlns:cc="http://creativecommons.org/ns#"
   xmlns:rdf="http://www.w3.org/1999/02/22-rdf-syntax-ns#"
   xmlns:svg="http://www.w3.org/2000/svg"
   xmlns="http://www.w3.org/2000/svg"
   xmlns:sodipodi="http://sodipodi.sourceforge.net/DTD/sodipodi-0.dtd"
   xmlns:inkscape="http://www.inkscape.org/namespaces/inkscape"
   width="1920px"
   height="1080px"
   viewBox="0 0 1920 1080"
   version="1.1"
   id="SVGRoot"
   sodipodi:docname="drawing.svg"
   inkscape:version="1.0.1 (unknown)">
  <defs
     id="defs10" />
  <sodipodi:namedview
     id="base"
     pagecolor="#ffffff"
     bordercolor="#666666"
     borderopacity="1.0"
     inkscape:pageopacity="0.0"
     inkscape:pageshadow="2"
     inkscape:zoom="0.49497475"
     inkscape:cx="361.12324"
     inkscape:cy="770.62268"
     inkscape:document-units="px"
     inkscape:current-layer="layer2"
     inkscape:document-rotation="0"
     showgrid="true"
     inkscape:window-width="1920"
     inkscape:window-height="1021"
     inkscape:window-x="0"
     inkscape:window-y="1107"
     inkscape:window-maximized="1">
    <inkscape:grid
       type="xygrid"
       id="grid79" />
  </sodipodi:namedview>
  <metadata
     id="metadata13">
    <rdf:RDF>
      <cc:Work
         rdf:about="">
        <dc:format>image/svg+xml</dc:format>
        <dc:type
           rdf:resource="http://purl.org/dc/dcmitype/StillImage" />
        <dc:title></dc:title>
      </cc:Work>
    </rdf:RDF>
  </metadata>
  <g
     inkscape:groupmode="layer"
     id="layer4"
     inkscape:label="Layer 3">
    <rect
       style="fill:#1e1f29;fill-rule:evenodd;fill-opacity:1"
       id="rect108"
       width="1920"
       height="1080"
       x="0"
       y="0" />
  </g>
  <g
     inkscape:groupmode="layer"
     id="layer2"
     inkscape:label="Layer 2">
    <path
       d="m 1196.2718,868.41353 -91.9903,-91.99026 c -43.4016,26.54946 -93.2742,40.63951 -144.15207,40.72599 C 807.06397,817.14957 682.97985,693.06543 682.98015,540 c 0.1225,-50.85984 14.23783,-100.70532 40.80026,-144.07785 L 631.61575,303.75753 C 582.01271,372.55367 555.25938,455.18632 555.12943,540 c 0,223.67528 181.32469,404.99999 405,404.99999 84.79037,-0.18011 167.38597,-26.96767 236.14237,-76.58646 z"
       fill="#478061"
       id="path49"
       style="stroke-width:3.84853;fill:#362c47;fill-opacity:1" />
    <g
       id="g943"
       style="fill:#73628e;fill-opacity:1">
      <path
         d="m 960.12943,135 c -84.79042,0.18005 -167.38598,26.9677 -236.14239,76.58646 l 91.99028,91.99027 c 43.40163,-26.54947 93.27416,-40.63949 144.15211,-40.72601 153.06547,-3e-4 277.14957,124.08382 277.14927,277.14928 -0.1224,50.85982 -14.2379,100.70529 -40.8003,144.07784 l 92.1647,92.16463 C 1338.246,707.44628 1364.9995,624.81366 1365.1295,540 c 0,-223.67531 -181.3248,-405 -405.00007,-405 z"
         fill="#abc2ab"
         id="path47"
         style="stroke-width:3.84853;fill:#73628e;fill-opacity:1" />
      <circle
         fill="#abc2ab"
         cx="960.0647"
         cy="540"
         r="128.93878"
         id="circle51"
         style="stroke-width:3.84853;fill:#73628e;fill-opacity:1" />
    </g>
    <g
       id="g106"
       style="fill:#282a36;fill-opacity:1">
      <path
         d="m 585.18646,615.33692 c -4.41644,3.15456 -8.43855,4.73185 -12.06632,4.73185 H 557.5049 c -2.20822,0 -3.94324,-0.39429 -5.20507,-1.18293 -1.26182,-0.78868 -2.28707,-1.97164 -3.07573,-3.54892 L 469.2552,466.75563 c -0.31547,-0.31546 -0.4732,-0.70978 -0.4732,-1.18294 v -1.41959 c 0,-1.57729 0.55207,-2.83913 1.65619,-3.78553 1.26183,-1.10409 3.23345,-1.65614 5.91486,-1.65614 h 97.24029 c 5.20506,0 8.59624,1.57729 10.17352,4.73187 l 49.21167,94.87437 137.93446,-94.87437 c 4.57417,-3.15458 9.38493,-4.73187 14.4323,-4.73187 h 15.37859 c 2.05053,0 3.07578,0.86751 3.07578,2.60254 0,1.41955 -1.26182,3.15457 -3.78547,5.20506 z"
         fill="#000000"
         id="path53"
         style="stroke-width:3.84853;fill:#282a36;fill-opacity:1" />
      <path
         d="m 799.78495,620.06877 c -8.20194,0 -15.45749,-1.26182 -21.76664,-3.7855 -6.30923,-2.68139 -11.59319,-6.30917 -15.8519,-10.88334 -4.2587,-4.57418 -7.49215,-9.93695 -9.70033,-16.08837 -2.20819,-6.30921 -3.31228,-13.0916 -3.31228,-20.3472 0,-9.30602 1.57729,-18.45433 4.73187,-27.44489 3.15458,-8.99059 7.49215,-17.58687 13.01271,-25.78882 5.67823,-8.20195 12.30285,-15.77296 19.87386,-22.71305 7.72875,-6.94012 16.08843,-12.93385 25.07904,-17.98118 9.14833,-5.04733 18.76983,-8.99057 28.8645,-11.82971 10.09473,-2.99685 20.42603,-4.49527 30.99387,-4.49527 h 115.93121 c 8.35971,0 15.69414,1.26182 22.00334,3.78547 6.4669,2.52368 11.8297,6.07261 16.0884,10.64678 4.2587,4.4164 7.4922,9.70033 9.7003,15.85179 2.2083,6.15146 3.3124,12.85496 3.3124,20.11051 0,9.30607 -1.6561,18.53325 -4.9685,27.68156 -3.1546,8.9906 -7.571,17.58687 -13.2493,25.78879 -5.6782,8.20191 -12.3818,15.85184 -20.1105,22.94969 -7.72875,6.94009 -16.16731,13.01266 -25.31562,18.21772 -9.14827,5.04735 -18.7698,9.06949 -28.8645,12.06634 -10.09466,2.83914 -20.26826,4.25868 -30.52072,4.25868 z m 142.42983,-96.76714 c 5.2051,-11.04104 7.80767,-19.32184 7.80767,-24.84237 0,-4.57417 -1.65622,-7.72876 -4.96857,-9.46378 -3.15461,-1.73502 -7.88645,-2.60253 -14.19562,-2.60253 H 898.6814 c -4.57413,0 -8.83284,0.63091 -12.77613,1.89273 -3.78553,1.10413 -7.33442,3.07575 -10.64673,5.91486 -3.31232,2.83915 -6.54574,6.62468 -9.70035,11.35657 -2.99681,4.73188 -6.07252,10.64672 -9.22712,17.74452 l -11.35662,25.78883 c -5.99369,13.40702 -8.99054,23.50172 -8.99054,30.28411 0,4.57413 1.34069,7.88645 4.02207,9.93691 2.68145,1.89275 6.54583,2.83914 11.59312,2.83914 h 32.41346 c 4.88964,0 9.38496,-0.70978 13.48592,-2.12932 4.101,-1.57732 8.04424,-4.02214 11.82973,-7.33445 3.7855,-3.31232 7.41328,-7.72874 10.88331,-13.24927 3.47007,-5.52053 7.01895,-12.30291 10.64674,-20.34712 z"
         fill="#000000"
         id="path55"
         style="stroke-width:3.84853;fill:#282a36;fill-opacity:1" />
      <path
         d="m 1022.1134,620.06877 c -2.8391,0 -4.2587,-0.94636 -4.2587,-2.83911 0,-0.94635 0.2367,-2.12935 0.7099,-3.54892 l 66.4829,-148.81785 c 1.8928,-4.10097 4.8896,-6.15145 8.9906,-6.15145 h 81.3885 c 2.9968,0 4.4952,1.02522 4.4952,3.07568 0,0.94639 -0.3155,1.97165 -0.9463,3.07577 l -66.2464,148.81785 c -1.8928,4.25871 -4.8897,6.38803 -8.9907,6.38803 z"
         fill="#000000"
         id="path57"
         style="stroke-width:3.84853;fill:#282a36;fill-opacity:1" />
      <path
         d="m 1138.4402,620.06877 c -2.8391,0 -4.2586,-0.94636 -4.2586,-2.83911 0,-0.94635 0.2367,-2.12935 0.7098,-3.54892 l 66.4829,-148.81785 c 1.8928,-4.10097 4.8897,-6.15145 8.9906,-6.15145 h 190.2219 c 8.202,0 15.4575,1.26182 21.7667,3.78547 6.3092,2.52368 11.5931,6.07261 15.8518,10.64678 4.2587,4.4164 7.4922,9.70033 9.7004,15.85179 2.2082,6.15146 3.3123,12.85496 3.3123,20.11051 0,9.62154 -1.6561,19.08532 -4.9685,28.39134 -3.3123,9.14831 -7.8865,17.82345 -13.7225,26.0254 -5.6782,8.20192 -12.4606,15.77294 -20.347,22.71304 -7.7288,6.9401 -16.1673,12.93384 -25.3157,17.98116 -8.9906,4.88964 -18.4543,8.75402 -28.3913,11.59313 -9.937,2.83914 -19.8739,4.25871 -29.8109,4.25871 z m 205.8371,-96.76714 c 5.0474,-11.35651 7.5711,-19.6373 7.5711,-24.84237 0,-4.57417 -1.5773,-7.72876 -4.7319,-9.46378 -3.1546,-1.73502 -7.7288,-2.60253 -13.7225,-2.60253 h -48.0287 l -46.8456,105.75767 h 47.792 c 4.7319,0 9.1483,-0.70978 13.2493,-2.12932 4.101,-1.57732 7.9654,-4.0221 11.5931,-7.33445 3.7856,-3.47007 7.4133,-7.88646 10.8834,-13.24927 3.6278,-5.52053 7.2555,-12.30291 10.8833,-20.34712 z"
         fill="#000000"
         id="path59"
         style="stroke-width:3.84853;fill:#282a36;fill-opacity:1" />
    </g>
  </g>
  <g
     inkscape:label="Layer 1"
     inkscape:groupmode="layer"
     id="layer1"
     style="opacity:1" />
</svg>
